<svg id="logo" xmlns="http://www.w3.org/2000/svg" xmlns:xlink="http://www.w3.org/1999/xlink" viewBox="0 0 958.12076 291.03358"><defs><style>.cls-1{fill:#fff;}.cls-2{fill:#1e3764;}.cls-3{fill:url(#Bancontact_blauw_rgb);}.cls-4{fill:url(#Bancontact_geel_rgb);}</style><linearGradient id="Bancontact_blauw_rgb" x1="127.44992" y1="165.38579" x2="193.67988" y2="140.78613" gradientUnits="userSpaceOnUse"><stop offset="0" stop-color="#005ab9"/><stop offset="1" stop-color="#1e3764"/></linearGradient><linearGradient id="Bancontact_geel_rgb" x1="205.15389" y1="148.67208" x2="275.47637" y2="124.6797" gradientUnits="userSpaceOnUse"><stop offset="0" stop-color="#fba900"/><stop offset="1" stop-color="#ffd800"/></linearGradient></defs><path id="rounded_white_background" class="cls-1" d="M87.02461,72.75839H871.09615A14.26622,14.26622,0,0,1,885.36237,87.0246V204.009a14.26623,14.26623,0,0,1-14.26623,14.26623H87.02461A14.26622,14.26622,0,0,1,72.7584,204.009V87.0246A14.26622,14.26622,0,0,1,87.02461,72.75839Z"/><path id="Bancontact" class="cls-2" d="M342.17719,181.896V109.13756h22.4512c16.31873,0,26.81678,6.13247,26.81678,18.81331,0,7.17194-3.3261,12.16109-8.00347,15.07131,6.756,3.1179,10.70574,9.14652,10.70574,17.35794,0,14.65593-10.70574,21.51583-27.33626,21.51583ZM356.62493,139.384h10.706c6.5481,0,9.35473-3.22226,9.35473-9.14652,0-6.34068-5.09326-8.41911-11.95341-8.41911h-8.10731Zm0,29.83109h8.93883c8.73116,0,13.82416-2.18278,13.82416-9.04268,0-6.756-4.36532-9.56242-12.57674-9.56242H356.62493Zm65.54052,13.928c-14.24,0-21.412-6.96374-21.412-16.31847,0-10.29036,8.41936-16.319,20.89225-16.42283a65.08786,65.08786,0,0,1,9.25063.83178v-2.49483c0-6.34016-3.6379-9.35474-10.60189-9.35474a36.46647,36.46647,0,0,0-13.72031,2.49484l-2.59842-11.22547c4.46942-1.87126,11.64136-3.11842,17.98178-3.11842,15.27925,0,22.86683,8.10758,22.86683,22.13941v28.89546C440.56287,180.75263,432.5594,183.14311,422.16545,183.14311Zm8.7309-11.74521V160.27627a34.90978,34.90978,0,0,0-7.37963-.83178c-4.78147,0-8.52321,1.87126-8.52321,6.75657,0,4.36557,3.11816,6.65221,8.627,6.65221A16.27143,16.27143,0,0,0,430.89635,171.3979ZM454.923,181.896V132.10824a63.469,63.469,0,0,1,23.49067-4.57327c15.17516,0,23.90631,7.48348,23.90631,21.30763V181.896H487.97606V149.88207c0-7.17194-3.3261-10.49805-9.66652-10.49805a21.79967,21.79967,0,0,0-9.14679,1.87126V181.896Zm97.52357-51.24256L549.744,141.9827a31.66107,31.66107,0,0,0-11.7452-2.59868c-8.41911,0-12.99263,5.92479-12.99263,15.69541,0,10.70574,4.78121,16.21463,13.72031,16.21463a29.42534,29.42534,0,0,0,11.53726-2.70253l2.28663,11.53752a34.98384,34.98384,0,0,1-14.96747,3.01406c-17.2541,0-27.23241-10.70574-27.23241-27.6483,0-16.83821,9.87447-27.95984,26.40115-27.95984A40.06392,40.06392,0,0,1,552.44654,130.65339Zm30.98725,52.48972c-16.00694,0-25.98525-11.12163-25.98525-27.856,0-16.63052,9.97831-27.75215,25.98525-27.75215,16.11078,0,25.88114,11.12163,25.88114,27.75215C609.31493,172.02148,599.54457,183.14311,583.43379,183.14311Zm0-11.84905c7.37989,0,11.22547-6.13247,11.22547-16.00694,0-9.77062-3.84558-15.9031-11.22547-15.9031-7.27579,0-11.32958,6.13248-11.32958,15.9031C572.10421,165.16159,576.158,171.29406,583.43379,171.29406ZM617.61552,181.896V132.10824a63.469,63.469,0,0,1,23.49067-4.57327c15.17515,0,23.9063,7.48348,23.9063,21.30763V181.896H650.66861V149.88207c0-7.17194-3.32611-10.49805-9.66652-10.49805a21.7996,21.7996,0,0,0-9.14679,1.87126V181.896Zm79.74559,1.24716c-12.36878,0-18.7092-6.75605-18.7092-20.47636V140.21581h-7.0681V128.78213h7.0681V117.24461l14.34363-.72742v12.26494h11.53752v11.43368H692.99554v22.24325c0,6.02863,2.49483,8.835,7.17194,8.835a25.20427,25.20427,0,0,0,5.50889-.62358l.72768,11.53752A39.64666,39.64666,0,0,1,697.36111,183.14311Zm36.20489,0c-14.24,0-21.412-6.96374-21.412-16.31847,0-10.29036,8.41936-16.319,20.89225-16.42283a65.088,65.088,0,0,1,9.25063.83178v-2.49483c0-6.34016-3.6379-9.35474-10.6019-9.35474a36.46646,36.46646,0,0,0-13.7203,2.49484l-2.59842-11.22547c4.46942-1.87126,11.64136-3.11842,17.98178-3.11842,15.27925,0,22.86683,8.10758,22.86683,22.13941v28.89546C751.96342,180.75263,743.96,183.14311,733.566,183.14311Zm8.7309-11.74521V160.27627a34.91036,34.91036,0,0,0-7.37989-.83178c-4.78121,0-8.523,1.87126-8.523,6.75657,0,4.36557,3.11816,6.65221,8.62705,6.65221A16.27059,16.27059,0,0,0,742.2969,171.3979Zm63.00331-40.74451-2.70253,11.32931a31.661,31.661,0,0,0-11.7452-2.59868c-8.41911,0-12.99263,5.92479-12.99263,15.69541,0,10.70574,4.78121,16.21463,13.72031,16.21463a29.42526,29.42526,0,0,0,11.53726-2.70253l2.28689,11.53752a34.98559,34.98559,0,0,1-14.96747,3.01406c-17.25435,0-27.23266-10.70574-27.23266-27.6483,0-16.83821,9.87446-27.95984,26.40088-27.95984A40.06428,40.06428,0,0,1,805.30021,130.65339Zm31.53635,52.48972c-12.36879,0-18.7092-6.75605-18.7092-20.47636V140.21581h-7.0681V128.78213h7.0681V117.24461l14.34362-.72742v12.26494H844.0085v11.43368H832.471v22.24325c0,6.02863,2.49484,8.835,7.17195,8.835a25.20434,25.20434,0,0,0,5.50889-.62358l.72768,11.53752A39.64672,39.64672,0,0,1,836.83656,183.14311Z"/><path id="blue-symbol" class="cls-3" d="M145.10367,181.89594c27.28429,0,40.92643-18.18958,54.56858-36.37915H109.13763v36.37915Z"/><path id="yellow-symbol" class="cls-4" d="M254.24082,109.13764c-27.28429,0-40.92643,18.18958-54.56857,36.37915h90.53461V109.13764Z"/></svg>